:FULLY-SPECIFIED
:FORCE-ALL-JOINTS-BE-3DOF
:DEGREES
162
root 8.29293 16.6217 -14.2329 7.42852 9.05498 -0.620461
lfemur -6.18918 7.46501 -15.2071
ltibia 52.5441 -0 0
lfoot 0.485745 12.1957 0.133899
ltoes -12.9291 0 0
rfemur -28.1143 2.17768 22.8812
rtibia 29.3959 -0 0
rfoot -13.9349 -0.178755 0.0924343
rtoes -15.2258 0 0
lowerback -4.86662 -1.75641 -0.663325
upperback -1.61496 -2.3517 3.38713
thorax 1.24699 -1.17455 3.71007
lowerneck -18.7112 -7.07701 -14.4731
upperneck 15.0824 -8.62007 14.4176
head 9.11972 -3.49726 6.19189
lclavicle -2.54444e-14 2.3059e-14 0
lhumerus -44.3307 -13.709 97.2571
lradius 27.6683 -0 0
lwrist 4.81011 0 0
lhand -1.57985 -19.0535 0.0345543
lfingers 7.12502 -0 0
lthumb 24.0742 9.43407 0.0271919
rclavicle -2.54444e-14 2.3059e-14 0
rhumerus -45.3062 9.42625 -81.7351
rradius 34.8303 -0 0
rwrist -18.9574 0 0
rhand -28.421 -26.3986 -0.00279326
rfingers 7.12502 -0 0
rthumb -1.79255 -56.3705 -0.00270959
163
root 8.2685 16.6376 -14.0803 7.47775 9.12912 -0.778066
lfemur -6.80183 7.69997 -14.9187
ltibia 53.9268 -0 0
lfoot 0.903017 12.5155 0.0915917
ltoes -13.1009 0 0
rfemur -27.7808 1.88139 23.3184
rtibia 29.4836 -0 0
rfoot -13.6652 0.163718 0.0632335
rtoes -15.0581 0 0
lowerback -4.77134 -1.70809 -0.509604
upperback -1.62575 -2.29441 3.4207
thorax 1.17041 -1.1443 3.66835
lowerneck -18.689 -7.1216 -14.5052
upperneck 14.9189 -8.67754 14.5089
head 9.07383 -3.51911 6.21576
lclavicle -2.54444e-14 2.3059e-14 0
lhumerus -44.7085 -13.3798 97.2321
lradius 27.3248 -0 0
lwrist 4.65728 0 0
lhand -1.32946 -18.9152 0.0236406
lfingers 7.12502 -0 0
lthumb 24.3149 9.54738 0.0186038
rclavicle -2.54444e-14 2.3059e-14 0
rhumerus -45.2586 9.49176 -81.7027
rradius 34.8612 -0 0
rwrist -18.9771 0 0
rhand -28.3869 -26.4807 -0.00191116
rfingers 7.12502 -0 0
rthumb -1.75954 -56.4529 -0.00185392
164
root 8.24407 16.6536 -13.9278 7.5268 9.2034 -0.935638
lfemur -7.41364 7.93798 -14.6328
ltibia 55.3096 -0 0
lfoot 1.32005 12.835 0.0469575
ltoes -13.2728 0 0
rfemur -27.4496 1.58257 23.7537
rtibia 29.5713 -0 0
rfoot -13.3957 0.50605 0.0324214
rtoes -14.8903 0 0
lowerback -4.67593 -1.66003 -0.355807
upperback -1.63651 -2.23711 3.45425
thorax 1.09382 -1.1141 3.62659
lowerneck -18.6667 -7.16617 -14.5373
upperneck 14.7553 -8.73476 14.6004
head 9.02793 -3.54093 6.23965
lclavicle -2.54444e-14 2.3059e-14 0
lhumerus -45.0859 -13.0508 97.2048
lradius 26.9814 -0 0
lwrist 4.50445 0 0
lhand -1.07909 -18.7769 0.0121224
lfingers 7.12502 -0 0
lthumb 24.5556 9.66064 0.00953973
rclavicle -2.54444e-14 2.3059e-14 0
rhumerus -45.211 9.55723 -81.6703
rradius 34.8921 -0 0
rwrist -18.9969 0 0
rhand -28.3527 -26.5628 -0.000980075
rfingers 7.12502 -0 0
rthumb -1.72653 -56.5354 -0.000950719
165
root 8.21964 16.6696 -13.7752 7.57564 9.27781 -1.09318
lfemur -8.02459 8.17899 -14.3492
ltibia 56.6923 0 0
lfoot 1.73682 13.1541 0
ltoes -13.4446 0 0
rfemur -27.1207 1.28124 24.1873
rtibia 29.659 0 0
rfoot -13.1264 0.848233 0
rtoes -14.7226 0 0
lowerback -4.58039 -1.61222 -0.201933
upperback -1.64723 -2.17981 3.48779
thorax 1.0172 -1.08396 3.58479
lowerneck -18.6444 -7.21073 -14.5694
upperneck 14.5916 -8.79172 14.6921
head 8.98202 -3.56274 6.26355
lclavicle -2.54444e-14 2.3059e-14 0
lhumerus -45.4629 -12.722 97.1754
lradius 26.6379 0 0
lwrist 4.35162 0 0
lhand -0.828752 -18.6386 0
lfingers 7.12502 0 0
lthumb 24.7963 9.77387 0
rclavicle -2.54444e-14 2.3059e-14 0
rhumerus -45.1634 9.62268 -81.6378
rradius 34.923 0 0
rwrist -19.0166 0 0
rhand -28.3185 -26.6449 0
rfingers 7.12502 0 0
rthumb -1.69352 -56.6179 0
